  <svg
        width="1000"
        height="970"
        viewBox="0 0 1452 970"
        fill="none"
        xmlns="http://www.w3.org/2000/svg"
      >
        <path
          opacity="0.3"
          d="M1452 970V625.082H1436.44V538.669H1413.75V238.315H1380.94V199.55L1310.88 166.953V127.858H1301.17V238.315H1287.57V538.669H1273.99V380.783H1237.11V299.362H1226.81V538.669H1198.78V447.593H1180.36V424.357H1137.62V344.882H1114.23V288.68H1085.51V206.855H1075.24V288.68H1046.48V344.882H1023.09V424.357H980.394V447.593H961.932V538.669H940.049V424.357H897.349V178.296H883.778V151.131H792.532V178.296H773.113V356.555H695.437V373.992H666.309V387.537H695.437V457.321H613.9V224.77H596.431V175.322H558.586V0H547.92V175.322H520.741V224.77H361.382V208.507H351.672V318.965H338.101V320.911H329.936V431.368H316.329V461.359H287.605V379.975H277.307V573.763H265.869V492.415H255.571V619.318H249.319V528.243H230.856V504.97H188.157V425.531H164.766V369.33H136.005V287.432H125.744V369.33H96.9839V425.531H73.593V504.97H30.8936V528.243H12.4678V617.336H9.15776V619.318H0V970H1452Z"
          fill="#A3D5FE"
          fillOpacity="0.3"
        />
      </svg>
  